<svg width="321" height="201" viewBox="0 0 321 201" fill="none" xmlns="http://www.w3.org/2000/svg">
<path d="M51.9193 1.654C51.9193 44.4674 55.9904 89.4783 51.4898 132.03C48.6885 158.514 0.946804 165.038 1.65926 136.54C2.37572 107.882 41.7339 88.3751 63.4104 77.2589C75.5387 71.0393 88.2255 66.0578 100.461 60.076C101.241 59.6945 109.951 53.9742 111.415 54.7063C113.577 55.787 98.8255 88.092 98.4207 93.1531C98.0042 98.3582 93.9385 103.677 98.7428 97.4489C120.149 69.7005 108.595 117.335 121.081 102.174C122.622 100.302 135.042 85.7392 135.042 91.6496C135.042 100.881 139.438 97.4854 144.707 92.5088C149.11 88.3508 145.006 104.318 146.962 104.644C149.202 105.018 151.667 99.4294 153.943 100.671C155.295 101.408 153.641 104.565 154.802 105.611C156.69 107.31 164.677 106.04 166.615 106.04C182.839 106.04 198.248 103.228 214.298 101.422C220.324 100.744 265.715 99.8611 264.558 102.174" stroke="white" stroke-width="3" stroke-linecap="round"/>
<path d="M5.52542 198.828C10.3631 190.535 26.7841 184.684 35.166 181.86C70.7804 169.862 110.796 168.166 147.822 163.066C204.573 155.25 262.135 155.335 318.684 146.635" stroke="white" stroke-width="3" stroke-linecap="round"/>
</svg>
